G04 #@! TF.GenerationSoftware,KiCad,Pcbnew,9.0.0*
G04 #@! TF.CreationDate,2025-05-05T16:58:24-05:00*
G04 #@! TF.ProjectId,active3-rpi-hub75-adapter,61637469-7665-4332-9d72-70692d687562,rev?*
G04 #@! TF.SameCoordinates,Original*
G04 #@! TF.FileFunction,Soldermask,Bot*
G04 #@! TF.FilePolarity,Negative*
%FSLAX46Y46*%
G04 Gerber Fmt 4.6, Leading zero omitted, Abs format (unit mm)*
G04 Created by KiCad (PCBNEW 9.0.0) date 2025-05-05 16:58:24*
%MOMM*%
%LPD*%
G01*
G04 APERTURE LIST*
G04 Aperture macros list*
%AMRoundRect*
0 Rectangle with rounded corners*
0 $1 Rounding radius*
0 $2 $3 $4 $5 $6 $7 $8 $9 X,Y pos of 4 corners*
0 Add a 4 corners polygon primitive as box body*
4,1,4,$2,$3,$4,$5,$6,$7,$8,$9,$2,$3,0*
0 Add four circle primitives for the rounded corners*
1,1,$1+$1,$2,$3*
1,1,$1+$1,$4,$5*
1,1,$1+$1,$6,$7*
1,1,$1+$1,$8,$9*
0 Add four rect primitives between the rounded corners*
20,1,$1+$1,$2,$3,$4,$5,0*
20,1,$1+$1,$4,$5,$6,$7,0*
20,1,$1+$1,$6,$7,$8,$9,0*
20,1,$1+$1,$8,$9,$2,$3,0*%
G04 Aperture macros list end*
%ADD10R,1.700000X1.700000*%
%ADD11O,1.700000X1.700000*%
%ADD12C,1.600000*%
%ADD13O,1.600000X1.600000*%
%ADD14RoundRect,0.150000X0.875000X0.150000X-0.875000X0.150000X-0.875000X-0.150000X0.875000X-0.150000X0*%
%ADD15RoundRect,0.250000X1.100000X-0.325000X1.100000X0.325000X-1.100000X0.325000X-1.100000X-0.325000X0*%
G04 APERTURE END LIST*
D10*
X129750000Y-65930000D03*
D11*
X127210000Y-65930000D03*
X129750000Y-68470000D03*
X127210000Y-68470000D03*
X129750000Y-71010000D03*
X127210000Y-71010000D03*
X129750000Y-73550000D03*
X127210000Y-73550000D03*
X129750000Y-76090000D03*
X127210000Y-76090000D03*
X129750000Y-78630000D03*
X127210000Y-78630000D03*
X129750000Y-81170000D03*
X127210000Y-81170000D03*
X129750000Y-83710000D03*
X127210000Y-83710000D03*
X129750000Y-86250000D03*
X127210000Y-86250000D03*
X129750000Y-88790000D03*
X127210000Y-88790000D03*
X129750000Y-91330000D03*
X127210000Y-91330000D03*
X129750000Y-93870000D03*
X127210000Y-93870000D03*
X129750000Y-96410000D03*
X127210000Y-96410000D03*
X129750000Y-98950000D03*
X127210000Y-98950000D03*
X129750000Y-101490000D03*
X127210000Y-101490000D03*
X129750000Y-104030000D03*
X127210000Y-104030000D03*
X129750000Y-106570000D03*
X127210000Y-106570000D03*
X129750000Y-109110000D03*
X127210000Y-109110000D03*
X129750000Y-111650000D03*
X127210000Y-111650000D03*
X129750000Y-114190000D03*
X127210000Y-114190000D03*
D12*
X159833300Y-92810000D03*
D13*
X159833300Y-85190000D03*
D14*
X168700000Y-102800000D03*
X168700000Y-104070000D03*
X168700000Y-105340000D03*
X168700000Y-106610000D03*
X168700000Y-107880000D03*
X168700000Y-109150000D03*
X168700000Y-110420000D03*
X168700000Y-111690000D03*
X168700000Y-112960000D03*
X168700000Y-114230000D03*
X159400000Y-114230000D03*
X159400000Y-112960000D03*
X159400000Y-111690000D03*
X159400000Y-110420000D03*
X159400000Y-109150000D03*
X159400000Y-107880000D03*
X159400000Y-106610000D03*
X159400000Y-105340000D03*
X159400000Y-104070000D03*
X159400000Y-102800000D03*
X148700000Y-102800000D03*
X148700000Y-104070000D03*
X148700000Y-105340000D03*
X148700000Y-106610000D03*
X148700000Y-107880000D03*
X148700000Y-109150000D03*
X148700000Y-110420000D03*
X148700000Y-111690000D03*
X148700000Y-112960000D03*
X148700000Y-114230000D03*
X139400000Y-114230000D03*
X139400000Y-112960000D03*
X139400000Y-111690000D03*
X139400000Y-110420000D03*
X139400000Y-109150000D03*
X139400000Y-107880000D03*
X139400000Y-106610000D03*
X139400000Y-105340000D03*
X139400000Y-104070000D03*
X139400000Y-102800000D03*
D12*
X142700000Y-92810000D03*
D13*
X142700000Y-85190000D03*
D15*
X169250000Y-99640000D03*
X169250000Y-96690000D03*
D10*
X137900000Y-75390000D03*
D11*
X137900000Y-72850000D03*
X140440000Y-75390000D03*
X140440000Y-72850000D03*
X142980000Y-75390000D03*
X142980000Y-72850000D03*
X145520000Y-75390000D03*
X145520000Y-72850000D03*
X148060000Y-75390000D03*
X148060000Y-72850000D03*
X150600000Y-75390000D03*
X150600000Y-72850000D03*
X153140000Y-75390000D03*
X153140000Y-72850000D03*
X155680000Y-75390000D03*
X155680000Y-72850000D03*
D12*
X168400000Y-92810000D03*
D13*
X168400000Y-85190000D03*
D10*
X160850000Y-72950000D03*
D11*
X163390000Y-72950000D03*
X165930000Y-72950000D03*
X168470000Y-72950000D03*
D15*
X149250000Y-99640000D03*
X149250000Y-96690000D03*
D12*
X151266700Y-92810000D03*
D13*
X151266700Y-85190000D03*
M02*
