G04 #@! TF.GenerationSoftware,KiCad,Pcbnew,9.0.0*
G04 #@! TF.CreationDate,2025-05-05T16:58:24-05:00*
G04 #@! TF.ProjectId,active3-rpi-hub75-adapter,61637469-7665-4332-9d72-70692d687562,rev?*
G04 #@! TF.SameCoordinates,Original*
G04 #@! TF.FileFunction,Legend,Top*
G04 #@! TF.FilePolarity,Positive*
%FSLAX46Y46*%
G04 Gerber Fmt 4.6, Leading zero omitted, Abs format (unit mm)*
G04 Created by KiCad (PCBNEW 9.0.0) date 2025-05-05 16:58:24*
%MOMM*%
%LPD*%
G01*
G04 APERTURE LIST*
%ADD10C,0.127000*%
%ADD11C,0.150000*%
%ADD12C,0.203200*%
%ADD13C,0.120000*%
G04 APERTURE END LIST*
D10*
X176518966Y-102232694D02*
X175974680Y-102232694D01*
X175974680Y-102232694D02*
X175865823Y-102196409D01*
X175865823Y-102196409D02*
X175793252Y-102123837D01*
X175793252Y-102123837D02*
X175756966Y-102014980D01*
X175756966Y-102014980D02*
X175756966Y-101942409D01*
X175756966Y-102704408D02*
X175793252Y-102631837D01*
X175793252Y-102631837D02*
X175829537Y-102595551D01*
X175829537Y-102595551D02*
X175902109Y-102559265D01*
X175902109Y-102559265D02*
X176119823Y-102559265D01*
X176119823Y-102559265D02*
X176192394Y-102595551D01*
X176192394Y-102595551D02*
X176228680Y-102631837D01*
X176228680Y-102631837D02*
X176264966Y-102704408D01*
X176264966Y-102704408D02*
X176264966Y-102813265D01*
X176264966Y-102813265D02*
X176228680Y-102885837D01*
X176228680Y-102885837D02*
X176192394Y-102922123D01*
X176192394Y-102922123D02*
X176119823Y-102958408D01*
X176119823Y-102958408D02*
X175902109Y-102958408D01*
X175902109Y-102958408D02*
X175829537Y-102922123D01*
X175829537Y-102922123D02*
X175793252Y-102885837D01*
X175793252Y-102885837D02*
X175756966Y-102813265D01*
X175756966Y-102813265D02*
X175756966Y-102704408D01*
X176264966Y-103284980D02*
X175756966Y-103284980D01*
X176192394Y-103284980D02*
X176228680Y-103321266D01*
X176228680Y-103321266D02*
X176264966Y-103393837D01*
X176264966Y-103393837D02*
X176264966Y-103502694D01*
X176264966Y-103502694D02*
X176228680Y-103575266D01*
X176228680Y-103575266D02*
X176156109Y-103611552D01*
X176156109Y-103611552D02*
X175756966Y-103611552D01*
X175756966Y-104300981D02*
X176156109Y-104300981D01*
X176156109Y-104300981D02*
X176228680Y-104264695D01*
X176228680Y-104264695D02*
X176264966Y-104192123D01*
X176264966Y-104192123D02*
X176264966Y-104046981D01*
X176264966Y-104046981D02*
X176228680Y-103974409D01*
X175793252Y-104300981D02*
X175756966Y-104228409D01*
X175756966Y-104228409D02*
X175756966Y-104046981D01*
X175756966Y-104046981D02*
X175793252Y-103974409D01*
X175793252Y-103974409D02*
X175865823Y-103938123D01*
X175865823Y-103938123D02*
X175938394Y-103938123D01*
X175938394Y-103938123D02*
X176010966Y-103974409D01*
X176010966Y-103974409D02*
X176047252Y-104046981D01*
X176047252Y-104046981D02*
X176047252Y-104228409D01*
X176047252Y-104228409D02*
X176083537Y-104300981D01*
X175756966Y-104663838D02*
X176518966Y-104663838D01*
X175756966Y-104990410D02*
X176156109Y-104990410D01*
X176156109Y-104990410D02*
X176228680Y-104954124D01*
X176228680Y-104954124D02*
X176264966Y-104881552D01*
X176264966Y-104881552D02*
X176264966Y-104772695D01*
X176264966Y-104772695D02*
X176228680Y-104700124D01*
X176228680Y-104700124D02*
X176192394Y-104663838D01*
X175756966Y-105933838D02*
X176518966Y-105933838D01*
X176518966Y-105933838D02*
X176518966Y-106115267D01*
X176518966Y-106115267D02*
X176482680Y-106224124D01*
X176482680Y-106224124D02*
X176410109Y-106296695D01*
X176410109Y-106296695D02*
X176337537Y-106332981D01*
X176337537Y-106332981D02*
X176192394Y-106369267D01*
X176192394Y-106369267D02*
X176083537Y-106369267D01*
X176083537Y-106369267D02*
X175938394Y-106332981D01*
X175938394Y-106332981D02*
X175865823Y-106296695D01*
X175865823Y-106296695D02*
X175793252Y-106224124D01*
X175793252Y-106224124D02*
X175756966Y-106115267D01*
X175756966Y-106115267D02*
X175756966Y-105933838D01*
X175756966Y-107022410D02*
X176156109Y-107022410D01*
X176156109Y-107022410D02*
X176228680Y-106986124D01*
X176228680Y-106986124D02*
X176264966Y-106913552D01*
X176264966Y-106913552D02*
X176264966Y-106768410D01*
X176264966Y-106768410D02*
X176228680Y-106695838D01*
X175793252Y-107022410D02*
X175756966Y-106949838D01*
X175756966Y-106949838D02*
X175756966Y-106768410D01*
X175756966Y-106768410D02*
X175793252Y-106695838D01*
X175793252Y-106695838D02*
X175865823Y-106659552D01*
X175865823Y-106659552D02*
X175938394Y-106659552D01*
X175938394Y-106659552D02*
X176010966Y-106695838D01*
X176010966Y-106695838D02*
X176047252Y-106768410D01*
X176047252Y-106768410D02*
X176047252Y-106949838D01*
X176047252Y-106949838D02*
X176083537Y-107022410D01*
X176264966Y-107312696D02*
X175756966Y-107494124D01*
X175756966Y-107494124D02*
X176264966Y-107675553D01*
X175756966Y-107965838D02*
X176264966Y-107965838D01*
X176518966Y-107965838D02*
X176482680Y-107929552D01*
X176482680Y-107929552D02*
X176446394Y-107965838D01*
X176446394Y-107965838D02*
X176482680Y-108002124D01*
X176482680Y-108002124D02*
X176518966Y-107965838D01*
X176518966Y-107965838D02*
X176446394Y-107965838D01*
X175793252Y-108292409D02*
X175756966Y-108364981D01*
X175756966Y-108364981D02*
X175756966Y-108510124D01*
X175756966Y-108510124D02*
X175793252Y-108582695D01*
X175793252Y-108582695D02*
X175865823Y-108618981D01*
X175865823Y-108618981D02*
X175902109Y-108618981D01*
X175902109Y-108618981D02*
X175974680Y-108582695D01*
X175974680Y-108582695D02*
X176010966Y-108510124D01*
X176010966Y-108510124D02*
X176010966Y-108401267D01*
X176010966Y-108401267D02*
X176047252Y-108328695D01*
X176047252Y-108328695D02*
X176119823Y-108292409D01*
X176119823Y-108292409D02*
X176156109Y-108292409D01*
X176156109Y-108292409D02*
X176228680Y-108328695D01*
X176228680Y-108328695D02*
X176264966Y-108401267D01*
X176264966Y-108401267D02*
X176264966Y-108510124D01*
X176264966Y-108510124D02*
X176228680Y-108582695D01*
X174530189Y-102014980D02*
X175292189Y-102014980D01*
X174530189Y-102450409D02*
X174965617Y-102123837D01*
X175292189Y-102450409D02*
X174856760Y-102014980D01*
X174566475Y-103067266D02*
X174530189Y-102994694D01*
X174530189Y-102994694D02*
X174530189Y-102849552D01*
X174530189Y-102849552D02*
X174566475Y-102776980D01*
X174566475Y-102776980D02*
X174639046Y-102740694D01*
X174639046Y-102740694D02*
X174929332Y-102740694D01*
X174929332Y-102740694D02*
X175001903Y-102776980D01*
X175001903Y-102776980D02*
X175038189Y-102849552D01*
X175038189Y-102849552D02*
X175038189Y-102994694D01*
X175038189Y-102994694D02*
X175001903Y-103067266D01*
X175001903Y-103067266D02*
X174929332Y-103103552D01*
X174929332Y-103103552D02*
X174856760Y-103103552D01*
X174856760Y-103103552D02*
X174784189Y-102740694D01*
X175038189Y-103357552D02*
X174530189Y-103538980D01*
X174530189Y-103538980D02*
X175038189Y-103720409D01*
X174530189Y-104010694D02*
X175038189Y-104010694D01*
X175292189Y-104010694D02*
X175255903Y-103974408D01*
X175255903Y-103974408D02*
X175219617Y-104010694D01*
X175219617Y-104010694D02*
X175255903Y-104046980D01*
X175255903Y-104046980D02*
X175292189Y-104010694D01*
X175292189Y-104010694D02*
X175219617Y-104010694D01*
X175038189Y-104373551D02*
X174530189Y-104373551D01*
X174965617Y-104373551D02*
X175001903Y-104409837D01*
X175001903Y-104409837D02*
X175038189Y-104482408D01*
X175038189Y-104482408D02*
X175038189Y-104591265D01*
X175038189Y-104591265D02*
X175001903Y-104663837D01*
X175001903Y-104663837D02*
X174929332Y-104700123D01*
X174929332Y-104700123D02*
X174530189Y-104700123D01*
X174530189Y-105643551D02*
X175292189Y-105643551D01*
X174530189Y-106078980D02*
X174965617Y-105752408D01*
X175292189Y-106078980D02*
X174856760Y-105643551D01*
X174530189Y-106732123D02*
X174929332Y-106732123D01*
X174929332Y-106732123D02*
X175001903Y-106695837D01*
X175001903Y-106695837D02*
X175038189Y-106623265D01*
X175038189Y-106623265D02*
X175038189Y-106478123D01*
X175038189Y-106478123D02*
X175001903Y-106405551D01*
X174566475Y-106732123D02*
X174530189Y-106659551D01*
X174530189Y-106659551D02*
X174530189Y-106478123D01*
X174530189Y-106478123D02*
X174566475Y-106405551D01*
X174566475Y-106405551D02*
X174639046Y-106369265D01*
X174639046Y-106369265D02*
X174711617Y-106369265D01*
X174711617Y-106369265D02*
X174784189Y-106405551D01*
X174784189Y-106405551D02*
X174820475Y-106478123D01*
X174820475Y-106478123D02*
X174820475Y-106659551D01*
X174820475Y-106659551D02*
X174856760Y-106732123D01*
X174530189Y-107094980D02*
X175038189Y-107094980D01*
X174893046Y-107094980D02*
X174965617Y-107131266D01*
X174965617Y-107131266D02*
X175001903Y-107167552D01*
X175001903Y-107167552D02*
X175038189Y-107240123D01*
X175038189Y-107240123D02*
X175038189Y-107312694D01*
X175038189Y-107566694D02*
X174385046Y-107566694D01*
X174385046Y-107566694D02*
X174312475Y-107530408D01*
X174312475Y-107530408D02*
X174276189Y-107457837D01*
X174276189Y-107457837D02*
X174276189Y-107421551D01*
X175292189Y-107566694D02*
X175255903Y-107530408D01*
X175255903Y-107530408D02*
X175219617Y-107566694D01*
X175219617Y-107566694D02*
X175255903Y-107602980D01*
X175255903Y-107602980D02*
X175292189Y-107566694D01*
X175292189Y-107566694D02*
X175219617Y-107566694D01*
X174530189Y-108038408D02*
X174566475Y-107965837D01*
X174566475Y-107965837D02*
X174602760Y-107929551D01*
X174602760Y-107929551D02*
X174675332Y-107893265D01*
X174675332Y-107893265D02*
X174893046Y-107893265D01*
X174893046Y-107893265D02*
X174965617Y-107929551D01*
X174965617Y-107929551D02*
X175001903Y-107965837D01*
X175001903Y-107965837D02*
X175038189Y-108038408D01*
X175038189Y-108038408D02*
X175038189Y-108147265D01*
X175038189Y-108147265D02*
X175001903Y-108219837D01*
X175001903Y-108219837D02*
X174965617Y-108256123D01*
X174965617Y-108256123D02*
X174893046Y-108292408D01*
X174893046Y-108292408D02*
X174675332Y-108292408D01*
X174675332Y-108292408D02*
X174602760Y-108256123D01*
X174602760Y-108256123D02*
X174566475Y-108219837D01*
X174566475Y-108219837D02*
X174530189Y-108147265D01*
X174530189Y-108147265D02*
X174530189Y-108038408D01*
X175038189Y-108618980D02*
X174530189Y-108618980D01*
X174965617Y-108618980D02*
X175001903Y-108655266D01*
X175001903Y-108655266D02*
X175038189Y-108727837D01*
X175038189Y-108727837D02*
X175038189Y-108836694D01*
X175038189Y-108836694D02*
X175001903Y-108909266D01*
X175001903Y-108909266D02*
X174929332Y-108945552D01*
X174929332Y-108945552D02*
X174530189Y-108945552D01*
X174530189Y-109417266D02*
X174566475Y-109344695D01*
X174566475Y-109344695D02*
X174602760Y-109308409D01*
X174602760Y-109308409D02*
X174675332Y-109272123D01*
X174675332Y-109272123D02*
X174893046Y-109272123D01*
X174893046Y-109272123D02*
X174965617Y-109308409D01*
X174965617Y-109308409D02*
X175001903Y-109344695D01*
X175001903Y-109344695D02*
X175038189Y-109417266D01*
X175038189Y-109417266D02*
X175038189Y-109526123D01*
X175038189Y-109526123D02*
X175001903Y-109598695D01*
X175001903Y-109598695D02*
X174965617Y-109634981D01*
X174965617Y-109634981D02*
X174893046Y-109671266D01*
X174893046Y-109671266D02*
X174675332Y-109671266D01*
X174675332Y-109671266D02*
X174602760Y-109634981D01*
X174602760Y-109634981D02*
X174566475Y-109598695D01*
X174566475Y-109598695D02*
X174530189Y-109526123D01*
X174530189Y-109526123D02*
X174530189Y-109417266D01*
X174065412Y-102232694D02*
X173521126Y-102232694D01*
X173521126Y-102232694D02*
X173412269Y-102196409D01*
X173412269Y-102196409D02*
X173339698Y-102123837D01*
X173339698Y-102123837D02*
X173303412Y-102014980D01*
X173303412Y-102014980D02*
X173303412Y-101942409D01*
X173303412Y-102704408D02*
X173339698Y-102631837D01*
X173339698Y-102631837D02*
X173375983Y-102595551D01*
X173375983Y-102595551D02*
X173448555Y-102559265D01*
X173448555Y-102559265D02*
X173666269Y-102559265D01*
X173666269Y-102559265D02*
X173738840Y-102595551D01*
X173738840Y-102595551D02*
X173775126Y-102631837D01*
X173775126Y-102631837D02*
X173811412Y-102704408D01*
X173811412Y-102704408D02*
X173811412Y-102813265D01*
X173811412Y-102813265D02*
X173775126Y-102885837D01*
X173775126Y-102885837D02*
X173738840Y-102922123D01*
X173738840Y-102922123D02*
X173666269Y-102958408D01*
X173666269Y-102958408D02*
X173448555Y-102958408D01*
X173448555Y-102958408D02*
X173375983Y-102922123D01*
X173375983Y-102922123D02*
X173339698Y-102885837D01*
X173339698Y-102885837D02*
X173303412Y-102813265D01*
X173303412Y-102813265D02*
X173303412Y-102704408D01*
X173303412Y-103284980D02*
X174065412Y-103284980D01*
X173303412Y-103611552D02*
X173702555Y-103611552D01*
X173702555Y-103611552D02*
X173775126Y-103575266D01*
X173775126Y-103575266D02*
X173811412Y-103502694D01*
X173811412Y-103502694D02*
X173811412Y-103393837D01*
X173811412Y-103393837D02*
X173775126Y-103321266D01*
X173775126Y-103321266D02*
X173738840Y-103284980D01*
X173811412Y-103974409D02*
X173303412Y-103974409D01*
X173738840Y-103974409D02*
X173775126Y-104010695D01*
X173775126Y-104010695D02*
X173811412Y-104083266D01*
X173811412Y-104083266D02*
X173811412Y-104192123D01*
X173811412Y-104192123D02*
X173775126Y-104264695D01*
X173775126Y-104264695D02*
X173702555Y-104300981D01*
X173702555Y-104300981D02*
X173303412Y-104300981D01*
X173303412Y-104990410D02*
X173702555Y-104990410D01*
X173702555Y-104990410D02*
X173775126Y-104954124D01*
X173775126Y-104954124D02*
X173811412Y-104881552D01*
X173811412Y-104881552D02*
X173811412Y-104736410D01*
X173811412Y-104736410D02*
X173775126Y-104663838D01*
X173339698Y-104990410D02*
X173303412Y-104917838D01*
X173303412Y-104917838D02*
X173303412Y-104736410D01*
X173303412Y-104736410D02*
X173339698Y-104663838D01*
X173339698Y-104663838D02*
X173412269Y-104627552D01*
X173412269Y-104627552D02*
X173484840Y-104627552D01*
X173484840Y-104627552D02*
X173557412Y-104663838D01*
X173557412Y-104663838D02*
X173593698Y-104736410D01*
X173593698Y-104736410D02*
X173593698Y-104917838D01*
X173593698Y-104917838D02*
X173629983Y-104990410D01*
X173811412Y-105244410D02*
X173811412Y-105534696D01*
X174065412Y-105353267D02*
X173412269Y-105353267D01*
X173412269Y-105353267D02*
X173339698Y-105389553D01*
X173339698Y-105389553D02*
X173303412Y-105462124D01*
X173303412Y-105462124D02*
X173303412Y-105534696D01*
X173303412Y-105788696D02*
X174065412Y-105788696D01*
X173303412Y-106115268D02*
X173702555Y-106115268D01*
X173702555Y-106115268D02*
X173775126Y-106078982D01*
X173775126Y-106078982D02*
X173811412Y-106006410D01*
X173811412Y-106006410D02*
X173811412Y-105897553D01*
X173811412Y-105897553D02*
X173775126Y-105824982D01*
X173775126Y-105824982D02*
X173738840Y-105788696D01*
X173303412Y-106804697D02*
X173702555Y-106804697D01*
X173702555Y-106804697D02*
X173775126Y-106768411D01*
X173775126Y-106768411D02*
X173811412Y-106695839D01*
X173811412Y-106695839D02*
X173811412Y-106550697D01*
X173811412Y-106550697D02*
X173775126Y-106478125D01*
X173339698Y-106804697D02*
X173303412Y-106732125D01*
X173303412Y-106732125D02*
X173303412Y-106550697D01*
X173303412Y-106550697D02*
X173339698Y-106478125D01*
X173339698Y-106478125D02*
X173412269Y-106441839D01*
X173412269Y-106441839D02*
X173484840Y-106441839D01*
X173484840Y-106441839D02*
X173557412Y-106478125D01*
X173557412Y-106478125D02*
X173593698Y-106550697D01*
X173593698Y-106550697D02*
X173593698Y-106732125D01*
X173593698Y-106732125D02*
X173629983Y-106804697D01*
X173811412Y-107167554D02*
X173303412Y-107167554D01*
X173738840Y-107167554D02*
X173775126Y-107203840D01*
X173775126Y-107203840D02*
X173811412Y-107276411D01*
X173811412Y-107276411D02*
X173811412Y-107385268D01*
X173811412Y-107385268D02*
X173775126Y-107457840D01*
X173775126Y-107457840D02*
X173702555Y-107494126D01*
X173702555Y-107494126D02*
X173303412Y-107494126D01*
X173303412Y-108437554D02*
X174065412Y-108437554D01*
X174065412Y-108437554D02*
X173303412Y-108872983D01*
X173303412Y-108872983D02*
X174065412Y-108872983D01*
X173303412Y-109562412D02*
X173702555Y-109562412D01*
X173702555Y-109562412D02*
X173775126Y-109526126D01*
X173775126Y-109526126D02*
X173811412Y-109453554D01*
X173811412Y-109453554D02*
X173811412Y-109308412D01*
X173811412Y-109308412D02*
X173775126Y-109235840D01*
X173339698Y-109562412D02*
X173303412Y-109489840D01*
X173303412Y-109489840D02*
X173303412Y-109308412D01*
X173303412Y-109308412D02*
X173339698Y-109235840D01*
X173339698Y-109235840D02*
X173412269Y-109199554D01*
X173412269Y-109199554D02*
X173484840Y-109199554D01*
X173484840Y-109199554D02*
X173557412Y-109235840D01*
X173557412Y-109235840D02*
X173593698Y-109308412D01*
X173593698Y-109308412D02*
X173593698Y-109489840D01*
X173593698Y-109489840D02*
X173629983Y-109562412D01*
X173811412Y-109852698D02*
X173811412Y-110251841D01*
X173811412Y-110251841D02*
X173303412Y-109852698D01*
X173303412Y-109852698D02*
X173303412Y-110251841D01*
X173303412Y-110868698D02*
X173702555Y-110868698D01*
X173702555Y-110868698D02*
X173775126Y-110832412D01*
X173775126Y-110832412D02*
X173811412Y-110759840D01*
X173811412Y-110759840D02*
X173811412Y-110614698D01*
X173811412Y-110614698D02*
X173775126Y-110542126D01*
X173339698Y-110868698D02*
X173303412Y-110796126D01*
X173303412Y-110796126D02*
X173303412Y-110614698D01*
X173303412Y-110614698D02*
X173339698Y-110542126D01*
X173339698Y-110542126D02*
X173412269Y-110505840D01*
X173412269Y-110505840D02*
X173484840Y-110505840D01*
X173484840Y-110505840D02*
X173557412Y-110542126D01*
X173557412Y-110542126D02*
X173593698Y-110614698D01*
X173593698Y-110614698D02*
X173593698Y-110796126D01*
X173593698Y-110796126D02*
X173629983Y-110868698D01*
X173303412Y-111231555D02*
X173811412Y-111231555D01*
X173666269Y-111231555D02*
X173738840Y-111267841D01*
X173738840Y-111267841D02*
X173775126Y-111304127D01*
X173775126Y-111304127D02*
X173811412Y-111376698D01*
X173811412Y-111376698D02*
X173811412Y-111449269D01*
X173303412Y-111703269D02*
X173811412Y-111703269D01*
X174065412Y-111703269D02*
X174029126Y-111666983D01*
X174029126Y-111666983D02*
X173992840Y-111703269D01*
X173992840Y-111703269D02*
X174029126Y-111739555D01*
X174029126Y-111739555D02*
X174065412Y-111703269D01*
X174065412Y-111703269D02*
X173992840Y-111703269D01*
X173303412Y-112174983D02*
X173339698Y-112102412D01*
X173339698Y-112102412D02*
X173375983Y-112066126D01*
X173375983Y-112066126D02*
X173448555Y-112029840D01*
X173448555Y-112029840D02*
X173666269Y-112029840D01*
X173666269Y-112029840D02*
X173738840Y-112066126D01*
X173738840Y-112066126D02*
X173775126Y-112102412D01*
X173775126Y-112102412D02*
X173811412Y-112174983D01*
X173811412Y-112174983D02*
X173811412Y-112283840D01*
X173811412Y-112283840D02*
X173775126Y-112356412D01*
X173775126Y-112356412D02*
X173738840Y-112392698D01*
X173738840Y-112392698D02*
X173666269Y-112428983D01*
X173666269Y-112428983D02*
X173448555Y-112428983D01*
X173448555Y-112428983D02*
X173375983Y-112392698D01*
X173375983Y-112392698D02*
X173339698Y-112356412D01*
X173339698Y-112356412D02*
X173303412Y-112283840D01*
X173303412Y-112283840D02*
X173303412Y-112174983D01*
X172294349Y-101978694D02*
X172294349Y-102341552D01*
X172076635Y-101906123D02*
X172838635Y-102160123D01*
X172838635Y-102160123D02*
X172076635Y-102414123D01*
X172076635Y-102994695D02*
X172475778Y-102994695D01*
X172475778Y-102994695D02*
X172548349Y-102958409D01*
X172548349Y-102958409D02*
X172584635Y-102885837D01*
X172584635Y-102885837D02*
X172584635Y-102740695D01*
X172584635Y-102740695D02*
X172548349Y-102668123D01*
X172112921Y-102994695D02*
X172076635Y-102922123D01*
X172076635Y-102922123D02*
X172076635Y-102740695D01*
X172076635Y-102740695D02*
X172112921Y-102668123D01*
X172112921Y-102668123D02*
X172185492Y-102631837D01*
X172185492Y-102631837D02*
X172258063Y-102631837D01*
X172258063Y-102631837D02*
X172330635Y-102668123D01*
X172330635Y-102668123D02*
X172366921Y-102740695D01*
X172366921Y-102740695D02*
X172366921Y-102922123D01*
X172366921Y-102922123D02*
X172403206Y-102994695D01*
X172076635Y-103357552D02*
X172584635Y-103357552D01*
X172439492Y-103357552D02*
X172512063Y-103393838D01*
X172512063Y-103393838D02*
X172548349Y-103430124D01*
X172548349Y-103430124D02*
X172584635Y-103502695D01*
X172584635Y-103502695D02*
X172584635Y-103575266D01*
X172076635Y-103938123D02*
X172112921Y-103865552D01*
X172112921Y-103865552D02*
X172149206Y-103829266D01*
X172149206Y-103829266D02*
X172221778Y-103792980D01*
X172221778Y-103792980D02*
X172439492Y-103792980D01*
X172439492Y-103792980D02*
X172512063Y-103829266D01*
X172512063Y-103829266D02*
X172548349Y-103865552D01*
X172548349Y-103865552D02*
X172584635Y-103938123D01*
X172584635Y-103938123D02*
X172584635Y-104046980D01*
X172584635Y-104046980D02*
X172548349Y-104119552D01*
X172548349Y-104119552D02*
X172512063Y-104155838D01*
X172512063Y-104155838D02*
X172439492Y-104192123D01*
X172439492Y-104192123D02*
X172221778Y-104192123D01*
X172221778Y-104192123D02*
X172149206Y-104155838D01*
X172149206Y-104155838D02*
X172112921Y-104119552D01*
X172112921Y-104119552D02*
X172076635Y-104046980D01*
X172076635Y-104046980D02*
X172076635Y-103938123D01*
X172584635Y-104518695D02*
X172076635Y-104518695D01*
X172512063Y-104518695D02*
X172548349Y-104554981D01*
X172548349Y-104554981D02*
X172584635Y-104627552D01*
X172584635Y-104627552D02*
X172584635Y-104736409D01*
X172584635Y-104736409D02*
X172548349Y-104808981D01*
X172548349Y-104808981D02*
X172475778Y-104845267D01*
X172475778Y-104845267D02*
X172076635Y-104845267D01*
X172076635Y-105788695D02*
X172838635Y-105788695D01*
X172838635Y-105788695D02*
X172076635Y-106224124D01*
X172076635Y-106224124D02*
X172838635Y-106224124D01*
X172584635Y-106913553D02*
X171967778Y-106913553D01*
X171967778Y-106913553D02*
X171895206Y-106877267D01*
X171895206Y-106877267D02*
X171858921Y-106840981D01*
X171858921Y-106840981D02*
X171822635Y-106768410D01*
X171822635Y-106768410D02*
X171822635Y-106659553D01*
X171822635Y-106659553D02*
X171858921Y-106586981D01*
X172112921Y-106913553D02*
X172076635Y-106840981D01*
X172076635Y-106840981D02*
X172076635Y-106695838D01*
X172076635Y-106695838D02*
X172112921Y-106623267D01*
X172112921Y-106623267D02*
X172149206Y-106586981D01*
X172149206Y-106586981D02*
X172221778Y-106550695D01*
X172221778Y-106550695D02*
X172439492Y-106550695D01*
X172439492Y-106550695D02*
X172512063Y-106586981D01*
X172512063Y-106586981D02*
X172548349Y-106623267D01*
X172548349Y-106623267D02*
X172584635Y-106695838D01*
X172584635Y-106695838D02*
X172584635Y-106840981D01*
X172584635Y-106840981D02*
X172548349Y-106913553D01*
X172584635Y-107602982D02*
X172076635Y-107602982D01*
X172584635Y-107276410D02*
X172185492Y-107276410D01*
X172185492Y-107276410D02*
X172112921Y-107312696D01*
X172112921Y-107312696D02*
X172076635Y-107385267D01*
X172076635Y-107385267D02*
X172076635Y-107494124D01*
X172076635Y-107494124D02*
X172112921Y-107566696D01*
X172112921Y-107566696D02*
X172149206Y-107602982D01*
X172584635Y-107893268D02*
X172076635Y-108074696D01*
X172584635Y-108256125D02*
X172076635Y-108074696D01*
X172076635Y-108074696D02*
X171895206Y-108002125D01*
X171895206Y-108002125D02*
X171858921Y-107965839D01*
X171858921Y-107965839D02*
X171822635Y-107893268D01*
X172112921Y-108836696D02*
X172076635Y-108764124D01*
X172076635Y-108764124D02*
X172076635Y-108618982D01*
X172076635Y-108618982D02*
X172112921Y-108546410D01*
X172112921Y-108546410D02*
X172185492Y-108510124D01*
X172185492Y-108510124D02*
X172475778Y-108510124D01*
X172475778Y-108510124D02*
X172548349Y-108546410D01*
X172548349Y-108546410D02*
X172584635Y-108618982D01*
X172584635Y-108618982D02*
X172584635Y-108764124D01*
X172584635Y-108764124D02*
X172548349Y-108836696D01*
X172548349Y-108836696D02*
X172475778Y-108872982D01*
X172475778Y-108872982D02*
X172403206Y-108872982D01*
X172403206Y-108872982D02*
X172330635Y-108510124D01*
X172584635Y-109199553D02*
X172076635Y-109199553D01*
X172512063Y-109199553D02*
X172548349Y-109235839D01*
X172548349Y-109235839D02*
X172584635Y-109308410D01*
X172584635Y-109308410D02*
X172584635Y-109417267D01*
X172584635Y-109417267D02*
X172548349Y-109489839D01*
X172548349Y-109489839D02*
X172475778Y-109526125D01*
X172475778Y-109526125D02*
X172076635Y-109526125D01*
X170849858Y-102377837D02*
X170849858Y-102014980D01*
X170849858Y-102014980D02*
X171611858Y-102014980D01*
X170849858Y-102740694D02*
X170886144Y-102668123D01*
X170886144Y-102668123D02*
X170922429Y-102631837D01*
X170922429Y-102631837D02*
X170995001Y-102595551D01*
X170995001Y-102595551D02*
X171212715Y-102595551D01*
X171212715Y-102595551D02*
X171285286Y-102631837D01*
X171285286Y-102631837D02*
X171321572Y-102668123D01*
X171321572Y-102668123D02*
X171357858Y-102740694D01*
X171357858Y-102740694D02*
X171357858Y-102849551D01*
X171357858Y-102849551D02*
X171321572Y-102922123D01*
X171321572Y-102922123D02*
X171285286Y-102958409D01*
X171285286Y-102958409D02*
X171212715Y-102994694D01*
X171212715Y-102994694D02*
X170995001Y-102994694D01*
X170995001Y-102994694D02*
X170922429Y-102958409D01*
X170922429Y-102958409D02*
X170886144Y-102922123D01*
X170886144Y-102922123D02*
X170849858Y-102849551D01*
X170849858Y-102849551D02*
X170849858Y-102740694D01*
X171357858Y-103647838D02*
X170741001Y-103647838D01*
X170741001Y-103647838D02*
X170668429Y-103611552D01*
X170668429Y-103611552D02*
X170632144Y-103575266D01*
X170632144Y-103575266D02*
X170595858Y-103502695D01*
X170595858Y-103502695D02*
X170595858Y-103393838D01*
X170595858Y-103393838D02*
X170632144Y-103321266D01*
X170886144Y-103647838D02*
X170849858Y-103575266D01*
X170849858Y-103575266D02*
X170849858Y-103430123D01*
X170849858Y-103430123D02*
X170886144Y-103357552D01*
X170886144Y-103357552D02*
X170922429Y-103321266D01*
X170922429Y-103321266D02*
X170995001Y-103284980D01*
X170995001Y-103284980D02*
X171212715Y-103284980D01*
X171212715Y-103284980D02*
X171285286Y-103321266D01*
X171285286Y-103321266D02*
X171321572Y-103357552D01*
X171321572Y-103357552D02*
X171357858Y-103430123D01*
X171357858Y-103430123D02*
X171357858Y-103575266D01*
X171357858Y-103575266D02*
X171321572Y-103647838D01*
X170849858Y-104337267D02*
X171249001Y-104337267D01*
X171249001Y-104337267D02*
X171321572Y-104300981D01*
X171321572Y-104300981D02*
X171357858Y-104228409D01*
X171357858Y-104228409D02*
X171357858Y-104083267D01*
X171357858Y-104083267D02*
X171321572Y-104010695D01*
X170886144Y-104337267D02*
X170849858Y-104264695D01*
X170849858Y-104264695D02*
X170849858Y-104083267D01*
X170849858Y-104083267D02*
X170886144Y-104010695D01*
X170886144Y-104010695D02*
X170958715Y-103974409D01*
X170958715Y-103974409D02*
X171031286Y-103974409D01*
X171031286Y-103974409D02*
X171103858Y-104010695D01*
X171103858Y-104010695D02*
X171140144Y-104083267D01*
X171140144Y-104083267D02*
X171140144Y-104264695D01*
X171140144Y-104264695D02*
X171176429Y-104337267D01*
X171357858Y-104700124D02*
X170849858Y-104700124D01*
X171285286Y-104700124D02*
X171321572Y-104736410D01*
X171321572Y-104736410D02*
X171357858Y-104808981D01*
X171357858Y-104808981D02*
X171357858Y-104917838D01*
X171357858Y-104917838D02*
X171321572Y-104990410D01*
X171321572Y-104990410D02*
X171249001Y-105026696D01*
X171249001Y-105026696D02*
X170849858Y-105026696D01*
X170886144Y-105933838D02*
X170849858Y-106042696D01*
X170849858Y-106042696D02*
X170849858Y-106224124D01*
X170849858Y-106224124D02*
X170886144Y-106296696D01*
X170886144Y-106296696D02*
X170922429Y-106332981D01*
X170922429Y-106332981D02*
X170995001Y-106369267D01*
X170995001Y-106369267D02*
X171067572Y-106369267D01*
X171067572Y-106369267D02*
X171140144Y-106332981D01*
X171140144Y-106332981D02*
X171176429Y-106296696D01*
X171176429Y-106296696D02*
X171212715Y-106224124D01*
X171212715Y-106224124D02*
X171249001Y-106078981D01*
X171249001Y-106078981D02*
X171285286Y-106006410D01*
X171285286Y-106006410D02*
X171321572Y-105970124D01*
X171321572Y-105970124D02*
X171394144Y-105933838D01*
X171394144Y-105933838D02*
X171466715Y-105933838D01*
X171466715Y-105933838D02*
X171539286Y-105970124D01*
X171539286Y-105970124D02*
X171575572Y-106006410D01*
X171575572Y-106006410D02*
X171611858Y-106078981D01*
X171611858Y-106078981D02*
X171611858Y-106260410D01*
X171611858Y-106260410D02*
X171575572Y-106369267D01*
X170849858Y-106804695D02*
X170886144Y-106732124D01*
X170886144Y-106732124D02*
X170958715Y-106695838D01*
X170958715Y-106695838D02*
X171611858Y-106695838D01*
X170849858Y-107203838D02*
X170886144Y-107131267D01*
X170886144Y-107131267D02*
X170922429Y-107094981D01*
X170922429Y-107094981D02*
X170995001Y-107058695D01*
X170995001Y-107058695D02*
X171212715Y-107058695D01*
X171212715Y-107058695D02*
X171285286Y-107094981D01*
X171285286Y-107094981D02*
X171321572Y-107131267D01*
X171321572Y-107131267D02*
X171357858Y-107203838D01*
X171357858Y-107203838D02*
X171357858Y-107312695D01*
X171357858Y-107312695D02*
X171321572Y-107385267D01*
X171321572Y-107385267D02*
X171285286Y-107421553D01*
X171285286Y-107421553D02*
X171212715Y-107457838D01*
X171212715Y-107457838D02*
X170995001Y-107457838D01*
X170995001Y-107457838D02*
X170922429Y-107421553D01*
X170922429Y-107421553D02*
X170886144Y-107385267D01*
X170886144Y-107385267D02*
X170849858Y-107312695D01*
X170849858Y-107312695D02*
X170849858Y-107203838D01*
X171357858Y-107711839D02*
X170849858Y-107856982D01*
X170849858Y-107856982D02*
X171212715Y-108002124D01*
X171212715Y-108002124D02*
X170849858Y-108147267D01*
X170849858Y-108147267D02*
X171357858Y-108292410D01*
X170849858Y-108582696D02*
X171357858Y-108582696D01*
X171611858Y-108582696D02*
X171575572Y-108546410D01*
X171575572Y-108546410D02*
X171539286Y-108582696D01*
X171539286Y-108582696D02*
X171575572Y-108618982D01*
X171575572Y-108618982D02*
X171611858Y-108582696D01*
X171611858Y-108582696D02*
X171539286Y-108582696D01*
X170849858Y-108945553D02*
X171611858Y-108945553D01*
X171140144Y-109018125D02*
X170849858Y-109235839D01*
X171357858Y-109235839D02*
X171067572Y-108945553D01*
D11*
X132380180Y-85658207D02*
X132856371Y-85324874D01*
X132380180Y-85086779D02*
X133380180Y-85086779D01*
X133380180Y-85086779D02*
X133380180Y-85467731D01*
X133380180Y-85467731D02*
X133332561Y-85562969D01*
X133332561Y-85562969D02*
X133284942Y-85610588D01*
X133284942Y-85610588D02*
X133189704Y-85658207D01*
X133189704Y-85658207D02*
X133046847Y-85658207D01*
X133046847Y-85658207D02*
X132951609Y-85610588D01*
X132951609Y-85610588D02*
X132903990Y-85562969D01*
X132903990Y-85562969D02*
X132856371Y-85467731D01*
X132856371Y-85467731D02*
X132856371Y-85086779D01*
X132380180Y-86515350D02*
X132903990Y-86515350D01*
X132903990Y-86515350D02*
X132999228Y-86467731D01*
X132999228Y-86467731D02*
X133046847Y-86372493D01*
X133046847Y-86372493D02*
X133046847Y-86182017D01*
X133046847Y-86182017D02*
X132999228Y-86086779D01*
X132427800Y-86515350D02*
X132380180Y-86420112D01*
X132380180Y-86420112D02*
X132380180Y-86182017D01*
X132380180Y-86182017D02*
X132427800Y-86086779D01*
X132427800Y-86086779D02*
X132523038Y-86039160D01*
X132523038Y-86039160D02*
X132618276Y-86039160D01*
X132618276Y-86039160D02*
X132713514Y-86086779D01*
X132713514Y-86086779D02*
X132761133Y-86182017D01*
X132761133Y-86182017D02*
X132761133Y-86420112D01*
X132761133Y-86420112D02*
X132808752Y-86515350D01*
X132427800Y-86943922D02*
X132380180Y-87039160D01*
X132380180Y-87039160D02*
X132380180Y-87229636D01*
X132380180Y-87229636D02*
X132427800Y-87324874D01*
X132427800Y-87324874D02*
X132523038Y-87372493D01*
X132523038Y-87372493D02*
X132570657Y-87372493D01*
X132570657Y-87372493D02*
X132665895Y-87324874D01*
X132665895Y-87324874D02*
X132713514Y-87229636D01*
X132713514Y-87229636D02*
X132713514Y-87086779D01*
X132713514Y-87086779D02*
X132761133Y-86991541D01*
X132761133Y-86991541D02*
X132856371Y-86943922D01*
X132856371Y-86943922D02*
X132903990Y-86943922D01*
X132903990Y-86943922D02*
X132999228Y-86991541D01*
X132999228Y-86991541D02*
X133046847Y-87086779D01*
X133046847Y-87086779D02*
X133046847Y-87229636D01*
X133046847Y-87229636D02*
X132999228Y-87324874D01*
X133046847Y-87801065D02*
X132046847Y-87801065D01*
X132999228Y-87801065D02*
X133046847Y-87896303D01*
X133046847Y-87896303D02*
X133046847Y-88086779D01*
X133046847Y-88086779D02*
X132999228Y-88182017D01*
X132999228Y-88182017D02*
X132951609Y-88229636D01*
X132951609Y-88229636D02*
X132856371Y-88277255D01*
X132856371Y-88277255D02*
X132570657Y-88277255D01*
X132570657Y-88277255D02*
X132475419Y-88229636D01*
X132475419Y-88229636D02*
X132427800Y-88182017D01*
X132427800Y-88182017D02*
X132380180Y-88086779D01*
X132380180Y-88086779D02*
X132380180Y-87896303D01*
X132380180Y-87896303D02*
X132427800Y-87801065D01*
X132380180Y-88705827D02*
X133380180Y-88705827D01*
X132999228Y-88705827D02*
X133046847Y-88801065D01*
X133046847Y-88801065D02*
X133046847Y-88991541D01*
X133046847Y-88991541D02*
X132999228Y-89086779D01*
X132999228Y-89086779D02*
X132951609Y-89134398D01*
X132951609Y-89134398D02*
X132856371Y-89182017D01*
X132856371Y-89182017D02*
X132570657Y-89182017D01*
X132570657Y-89182017D02*
X132475419Y-89134398D01*
X132475419Y-89134398D02*
X132427800Y-89086779D01*
X132427800Y-89086779D02*
X132380180Y-88991541D01*
X132380180Y-88991541D02*
X132380180Y-88801065D01*
X132380180Y-88801065D02*
X132427800Y-88705827D01*
X132427800Y-89991541D02*
X132380180Y-89896303D01*
X132380180Y-89896303D02*
X132380180Y-89705827D01*
X132380180Y-89705827D02*
X132427800Y-89610589D01*
X132427800Y-89610589D02*
X132523038Y-89562970D01*
X132523038Y-89562970D02*
X132903990Y-89562970D01*
X132903990Y-89562970D02*
X132999228Y-89610589D01*
X132999228Y-89610589D02*
X133046847Y-89705827D01*
X133046847Y-89705827D02*
X133046847Y-89896303D01*
X133046847Y-89896303D02*
X132999228Y-89991541D01*
X132999228Y-89991541D02*
X132903990Y-90039160D01*
X132903990Y-90039160D02*
X132808752Y-90039160D01*
X132808752Y-90039160D02*
X132713514Y-89562970D01*
X132380180Y-90467732D02*
X133046847Y-90467732D01*
X132856371Y-90467732D02*
X132951609Y-90515351D01*
X132951609Y-90515351D02*
X132999228Y-90562970D01*
X132999228Y-90562970D02*
X133046847Y-90658208D01*
X133046847Y-90658208D02*
X133046847Y-90753446D01*
X132380180Y-91086780D02*
X133046847Y-91086780D01*
X132856371Y-91086780D02*
X132951609Y-91134399D01*
X132951609Y-91134399D02*
X132999228Y-91182018D01*
X132999228Y-91182018D02*
X133046847Y-91277256D01*
X133046847Y-91277256D02*
X133046847Y-91372494D01*
X133046847Y-91610590D02*
X132380180Y-91848685D01*
X133046847Y-92086780D02*
X132380180Y-91848685D01*
X132380180Y-91848685D02*
X132142085Y-91753447D01*
X132142085Y-91753447D02*
X132094466Y-91705828D01*
X132094466Y-91705828D02*
X132046847Y-91610590D01*
X132380180Y-93229638D02*
X133380180Y-93229638D01*
X133380180Y-93229638D02*
X133380180Y-93610590D01*
X133380180Y-93610590D02*
X133332561Y-93705828D01*
X133332561Y-93705828D02*
X133284942Y-93753447D01*
X133284942Y-93753447D02*
X133189704Y-93801066D01*
X133189704Y-93801066D02*
X133046847Y-93801066D01*
X133046847Y-93801066D02*
X132951609Y-93753447D01*
X132951609Y-93753447D02*
X132903990Y-93705828D01*
X132903990Y-93705828D02*
X132856371Y-93610590D01*
X132856371Y-93610590D02*
X132856371Y-93229638D01*
X132380180Y-94229638D02*
X133046847Y-94229638D01*
X133380180Y-94229638D02*
X133332561Y-94182019D01*
X133332561Y-94182019D02*
X133284942Y-94229638D01*
X133284942Y-94229638D02*
X133332561Y-94277257D01*
X133332561Y-94277257D02*
X133380180Y-94229638D01*
X133380180Y-94229638D02*
X133284942Y-94229638D01*
X133046847Y-95896304D02*
X132380180Y-95896304D01*
X133427800Y-95658209D02*
X132713514Y-95420114D01*
X132713514Y-95420114D02*
X132713514Y-96039161D01*
X173110588Y-114667438D02*
X173015350Y-114619819D01*
X173015350Y-114619819D02*
X172872493Y-114619819D01*
X172872493Y-114619819D02*
X172729636Y-114667438D01*
X172729636Y-114667438D02*
X172634398Y-114762676D01*
X172634398Y-114762676D02*
X172586779Y-114857914D01*
X172586779Y-114857914D02*
X172539160Y-115048390D01*
X172539160Y-115048390D02*
X172539160Y-115191247D01*
X172539160Y-115191247D02*
X172586779Y-115381723D01*
X172586779Y-115381723D02*
X172634398Y-115476961D01*
X172634398Y-115476961D02*
X172729636Y-115572200D01*
X172729636Y-115572200D02*
X172872493Y-115619819D01*
X172872493Y-115619819D02*
X172967731Y-115619819D01*
X172967731Y-115619819D02*
X173110588Y-115572200D01*
X173110588Y-115572200D02*
X173158207Y-115524580D01*
X173158207Y-115524580D02*
X173158207Y-115191247D01*
X173158207Y-115191247D02*
X172967731Y-115191247D01*
X174110588Y-115619819D02*
X173539160Y-115619819D01*
X173824874Y-115619819D02*
X173824874Y-114619819D01*
X173824874Y-114619819D02*
X173729636Y-114762676D01*
X173729636Y-114762676D02*
X173634398Y-114857914D01*
X173634398Y-114857914D02*
X173539160Y-114905533D01*
X174443922Y-114619819D02*
X175110588Y-114619819D01*
X175110588Y-114619819D02*
X174682017Y-115619819D01*
D12*
X173509245Y-64117493D02*
X175541245Y-64117493D01*
X174573626Y-64117493D02*
X174573626Y-65278636D01*
X173509245Y-65278636D02*
X175541245Y-65278636D01*
X173509245Y-66536541D02*
X173606007Y-66343017D01*
X173606007Y-66343017D02*
X173702768Y-66246255D01*
X173702768Y-66246255D02*
X173896292Y-66149493D01*
X173896292Y-66149493D02*
X174476864Y-66149493D01*
X174476864Y-66149493D02*
X174670387Y-66246255D01*
X174670387Y-66246255D02*
X174767149Y-66343017D01*
X174767149Y-66343017D02*
X174863911Y-66536541D01*
X174863911Y-66536541D02*
X174863911Y-66826826D01*
X174863911Y-66826826D02*
X174767149Y-67020350D01*
X174767149Y-67020350D02*
X174670387Y-67117112D01*
X174670387Y-67117112D02*
X174476864Y-67213874D01*
X174476864Y-67213874D02*
X173896292Y-67213874D01*
X173896292Y-67213874D02*
X173702768Y-67117112D01*
X173702768Y-67117112D02*
X173606007Y-67020350D01*
X173606007Y-67020350D02*
X173509245Y-66826826D01*
X173509245Y-66826826D02*
X173509245Y-66536541D01*
X173509245Y-68375017D02*
X173606007Y-68181493D01*
X173606007Y-68181493D02*
X173799530Y-68084731D01*
X173799530Y-68084731D02*
X175541245Y-68084731D01*
X173509245Y-69439398D02*
X173606007Y-69245874D01*
X173606007Y-69245874D02*
X173702768Y-69149112D01*
X173702768Y-69149112D02*
X173896292Y-69052350D01*
X173896292Y-69052350D02*
X174476864Y-69052350D01*
X174476864Y-69052350D02*
X174670387Y-69149112D01*
X174670387Y-69149112D02*
X174767149Y-69245874D01*
X174767149Y-69245874D02*
X174863911Y-69439398D01*
X174863911Y-69439398D02*
X174863911Y-69729683D01*
X174863911Y-69729683D02*
X174767149Y-69923207D01*
X174767149Y-69923207D02*
X174670387Y-70019969D01*
X174670387Y-70019969D02*
X174476864Y-70116731D01*
X174476864Y-70116731D02*
X173896292Y-70116731D01*
X173896292Y-70116731D02*
X173702768Y-70019969D01*
X173702768Y-70019969D02*
X173606007Y-69923207D01*
X173606007Y-69923207D02*
X173509245Y-69729683D01*
X173509245Y-69729683D02*
X173509245Y-69439398D01*
X174863911Y-71858445D02*
X173218959Y-71858445D01*
X173218959Y-71858445D02*
X173025435Y-71761683D01*
X173025435Y-71761683D02*
X172928673Y-71664921D01*
X172928673Y-71664921D02*
X172831911Y-71471398D01*
X172831911Y-71471398D02*
X172831911Y-71181112D01*
X172831911Y-71181112D02*
X172928673Y-70987588D01*
X173606007Y-71858445D02*
X173509245Y-71664921D01*
X173509245Y-71664921D02*
X173509245Y-71277874D01*
X173509245Y-71277874D02*
X173606007Y-71084350D01*
X173606007Y-71084350D02*
X173702768Y-70987588D01*
X173702768Y-70987588D02*
X173896292Y-70890826D01*
X173896292Y-70890826D02*
X174476864Y-70890826D01*
X174476864Y-70890826D02*
X174670387Y-70987588D01*
X174670387Y-70987588D02*
X174767149Y-71084350D01*
X174767149Y-71084350D02*
X174863911Y-71277874D01*
X174863911Y-71277874D02*
X174863911Y-71664921D01*
X174863911Y-71664921D02*
X174767149Y-71858445D01*
X173509245Y-72826064D02*
X174863911Y-72826064D01*
X174476864Y-72826064D02*
X174670387Y-72922826D01*
X174670387Y-72922826D02*
X174767149Y-73019588D01*
X174767149Y-73019588D02*
X174863911Y-73213112D01*
X174863911Y-73213112D02*
X174863911Y-73406635D01*
X173509245Y-74954826D02*
X174573626Y-74954826D01*
X174573626Y-74954826D02*
X174767149Y-74858064D01*
X174767149Y-74858064D02*
X174863911Y-74664540D01*
X174863911Y-74664540D02*
X174863911Y-74277493D01*
X174863911Y-74277493D02*
X174767149Y-74083969D01*
X173606007Y-74954826D02*
X173509245Y-74761302D01*
X173509245Y-74761302D02*
X173509245Y-74277493D01*
X173509245Y-74277493D02*
X173606007Y-74083969D01*
X173606007Y-74083969D02*
X173799530Y-73987207D01*
X173799530Y-73987207D02*
X173993054Y-73987207D01*
X173993054Y-73987207D02*
X174186578Y-74083969D01*
X174186578Y-74083969D02*
X174283340Y-74277493D01*
X174283340Y-74277493D02*
X174283340Y-74761302D01*
X174283340Y-74761302D02*
X174380102Y-74954826D01*
X174863911Y-75922445D02*
X172831911Y-75922445D01*
X174767149Y-75922445D02*
X174863911Y-76115969D01*
X174863911Y-76115969D02*
X174863911Y-76503016D01*
X174863911Y-76503016D02*
X174767149Y-76696540D01*
X174767149Y-76696540D02*
X174670387Y-76793302D01*
X174670387Y-76793302D02*
X174476864Y-76890064D01*
X174476864Y-76890064D02*
X173896292Y-76890064D01*
X173896292Y-76890064D02*
X173702768Y-76793302D01*
X173702768Y-76793302D02*
X173606007Y-76696540D01*
X173606007Y-76696540D02*
X173509245Y-76503016D01*
X173509245Y-76503016D02*
X173509245Y-76115969D01*
X173509245Y-76115969D02*
X173606007Y-75922445D01*
X173509245Y-77760921D02*
X175541245Y-77760921D01*
X173509245Y-78631778D02*
X174573626Y-78631778D01*
X174573626Y-78631778D02*
X174767149Y-78535016D01*
X174767149Y-78535016D02*
X174863911Y-78341492D01*
X174863911Y-78341492D02*
X174863911Y-78051207D01*
X174863911Y-78051207D02*
X174767149Y-77857683D01*
X174767149Y-77857683D02*
X174670387Y-77760921D01*
X173509245Y-79599397D02*
X174863911Y-79599397D01*
X175541245Y-79599397D02*
X175444483Y-79502635D01*
X175444483Y-79502635D02*
X175347721Y-79599397D01*
X175347721Y-79599397D02*
X175444483Y-79696159D01*
X175444483Y-79696159D02*
X175541245Y-79599397D01*
X175541245Y-79599397D02*
X175347721Y-79599397D01*
X173606007Y-81437873D02*
X173509245Y-81244349D01*
X173509245Y-81244349D02*
X173509245Y-80857302D01*
X173509245Y-80857302D02*
X173606007Y-80663778D01*
X173606007Y-80663778D02*
X173702768Y-80567016D01*
X173702768Y-80567016D02*
X173896292Y-80470254D01*
X173896292Y-80470254D02*
X174476864Y-80470254D01*
X174476864Y-80470254D02*
X174670387Y-80567016D01*
X174670387Y-80567016D02*
X174767149Y-80663778D01*
X174767149Y-80663778D02*
X174863911Y-80857302D01*
X174863911Y-80857302D02*
X174863911Y-81244349D01*
X174863911Y-81244349D02*
X174767149Y-81437873D01*
X175541245Y-83663396D02*
X175541245Y-84921301D01*
X175541245Y-84921301D02*
X174767149Y-84243968D01*
X174767149Y-84243968D02*
X174767149Y-84534253D01*
X174767149Y-84534253D02*
X174670387Y-84727777D01*
X174670387Y-84727777D02*
X174573626Y-84824539D01*
X174573626Y-84824539D02*
X174380102Y-84921301D01*
X174380102Y-84921301D02*
X173896292Y-84921301D01*
X173896292Y-84921301D02*
X173702768Y-84824539D01*
X173702768Y-84824539D02*
X173606007Y-84727777D01*
X173606007Y-84727777D02*
X173509245Y-84534253D01*
X173509245Y-84534253D02*
X173509245Y-83953682D01*
X173509245Y-83953682D02*
X173606007Y-83760158D01*
X173606007Y-83760158D02*
X173702768Y-83663396D01*
X173509245Y-85792158D02*
X175541245Y-85792158D01*
X175541245Y-85792158D02*
X175541245Y-86275968D01*
X175541245Y-86275968D02*
X175444483Y-86566253D01*
X175444483Y-86566253D02*
X175250959Y-86759777D01*
X175250959Y-86759777D02*
X175057435Y-86856539D01*
X175057435Y-86856539D02*
X174670387Y-86953301D01*
X174670387Y-86953301D02*
X174380102Y-86953301D01*
X174380102Y-86953301D02*
X173993054Y-86856539D01*
X173993054Y-86856539D02*
X173799530Y-86759777D01*
X173799530Y-86759777D02*
X173606007Y-86566253D01*
X173606007Y-86566253D02*
X173509245Y-86275968D01*
X173509245Y-86275968D02*
X173509245Y-85792158D01*
X173509245Y-89372348D02*
X175541245Y-89372348D01*
X175541245Y-89372348D02*
X175541245Y-89856158D01*
X175541245Y-89856158D02*
X175444483Y-90146443D01*
X175444483Y-90146443D02*
X175250959Y-90339967D01*
X175250959Y-90339967D02*
X175057435Y-90436729D01*
X175057435Y-90436729D02*
X174670387Y-90533491D01*
X174670387Y-90533491D02*
X174380102Y-90533491D01*
X174380102Y-90533491D02*
X173993054Y-90436729D01*
X173993054Y-90436729D02*
X173799530Y-90339967D01*
X173799530Y-90339967D02*
X173606007Y-90146443D01*
X173606007Y-90146443D02*
X173509245Y-89856158D01*
X173509245Y-89856158D02*
X173509245Y-89372348D01*
X173509245Y-91404348D02*
X174863911Y-91404348D01*
X175541245Y-91404348D02*
X175444483Y-91307586D01*
X175444483Y-91307586D02*
X175347721Y-91404348D01*
X175347721Y-91404348D02*
X175444483Y-91501110D01*
X175444483Y-91501110D02*
X175541245Y-91404348D01*
X175541245Y-91404348D02*
X175347721Y-91404348D01*
X173606007Y-92275205D02*
X173509245Y-92468729D01*
X173509245Y-92468729D02*
X173509245Y-92855777D01*
X173509245Y-92855777D02*
X173606007Y-93049300D01*
X173606007Y-93049300D02*
X173799530Y-93146062D01*
X173799530Y-93146062D02*
X173896292Y-93146062D01*
X173896292Y-93146062D02*
X174089816Y-93049300D01*
X174089816Y-93049300D02*
X174186578Y-92855777D01*
X174186578Y-92855777D02*
X174186578Y-92565491D01*
X174186578Y-92565491D02*
X174283340Y-92371967D01*
X174283340Y-92371967D02*
X174476864Y-92275205D01*
X174476864Y-92275205D02*
X174573626Y-92275205D01*
X174573626Y-92275205D02*
X174767149Y-92371967D01*
X174767149Y-92371967D02*
X174863911Y-92565491D01*
X174863911Y-92565491D02*
X174863911Y-92855777D01*
X174863911Y-92855777D02*
X174767149Y-93049300D01*
X174863911Y-94016919D02*
X172831911Y-94016919D01*
X174767149Y-94016919D02*
X174863911Y-94210443D01*
X174863911Y-94210443D02*
X174863911Y-94597490D01*
X174863911Y-94597490D02*
X174767149Y-94791014D01*
X174767149Y-94791014D02*
X174670387Y-94887776D01*
X174670387Y-94887776D02*
X174476864Y-94984538D01*
X174476864Y-94984538D02*
X173896292Y-94984538D01*
X173896292Y-94984538D02*
X173702768Y-94887776D01*
X173702768Y-94887776D02*
X173606007Y-94791014D01*
X173606007Y-94791014D02*
X173509245Y-94597490D01*
X173509245Y-94597490D02*
X173509245Y-94210443D01*
X173509245Y-94210443D02*
X173606007Y-94016919D01*
X173509245Y-96145681D02*
X173606007Y-95952157D01*
X173606007Y-95952157D02*
X173799530Y-95855395D01*
X173799530Y-95855395D02*
X175541245Y-95855395D01*
X173509245Y-97790633D02*
X174573626Y-97790633D01*
X174573626Y-97790633D02*
X174767149Y-97693871D01*
X174767149Y-97693871D02*
X174863911Y-97500347D01*
X174863911Y-97500347D02*
X174863911Y-97113300D01*
X174863911Y-97113300D02*
X174767149Y-96919776D01*
X173606007Y-97790633D02*
X173509245Y-97597109D01*
X173509245Y-97597109D02*
X173509245Y-97113300D01*
X173509245Y-97113300D02*
X173606007Y-96919776D01*
X173606007Y-96919776D02*
X173799530Y-96823014D01*
X173799530Y-96823014D02*
X173993054Y-96823014D01*
X173993054Y-96823014D02*
X174186578Y-96919776D01*
X174186578Y-96919776D02*
X174283340Y-97113300D01*
X174283340Y-97113300D02*
X174283340Y-97597109D01*
X174283340Y-97597109D02*
X174380102Y-97790633D01*
X174863911Y-98564728D02*
X173509245Y-99048538D01*
X174863911Y-99532347D02*
X173509245Y-99048538D01*
X173509245Y-99048538D02*
X173025435Y-98855014D01*
X173025435Y-98855014D02*
X172928673Y-98758252D01*
X172928673Y-98758252D02*
X172831911Y-98564728D01*
D11*
X127741905Y-63614819D02*
X127741905Y-62614819D01*
X127741905Y-62614819D02*
X128122857Y-62614819D01*
X128122857Y-62614819D02*
X128218095Y-62662438D01*
X128218095Y-62662438D02*
X128265714Y-62710057D01*
X128265714Y-62710057D02*
X128313333Y-62805295D01*
X128313333Y-62805295D02*
X128313333Y-62948152D01*
X128313333Y-62948152D02*
X128265714Y-63043390D01*
X128265714Y-63043390D02*
X128218095Y-63091009D01*
X128218095Y-63091009D02*
X128122857Y-63138628D01*
X128122857Y-63138628D02*
X127741905Y-63138628D01*
X129265714Y-63614819D02*
X128694286Y-63614819D01*
X128980000Y-63614819D02*
X128980000Y-62614819D01*
X128980000Y-62614819D02*
X128884762Y-62757676D01*
X128884762Y-62757676D02*
X128789524Y-62852914D01*
X128789524Y-62852914D02*
X128694286Y-62900533D01*
D13*
X125880000Y-64600000D02*
X125880000Y-115520000D01*
X125880000Y-64600000D02*
X128480000Y-64600000D01*
X125880000Y-115520000D02*
X131080000Y-115520000D01*
X128480000Y-64600000D02*
X128480000Y-67200000D01*
X128480000Y-67200000D02*
X131080000Y-67200000D01*
X129750000Y-64600000D02*
X131080000Y-64600000D01*
X131080000Y-64600000D02*
X131080000Y-65930000D01*
X131080000Y-67200000D02*
X131080000Y-115520000D01*
M02*
