G04 #@! TF.GenerationSoftware,KiCad,Pcbnew,9.0.0*
G04 #@! TF.CreationDate,2025-05-05T16:58:24-05:00*
G04 #@! TF.ProjectId,active3-rpi-hub75-adapter,61637469-7665-4332-9d72-70692d687562,rev?*
G04 #@! TF.SameCoordinates,Original*
G04 #@! TF.FileFunction,Soldermask,Top*
G04 #@! TF.FilePolarity,Negative*
%FSLAX46Y46*%
G04 Gerber Fmt 4.6, Leading zero omitted, Abs format (unit mm)*
G04 Created by KiCad (PCBNEW 9.0.0) date 2025-05-05 16:58:24*
%MOMM*%
%LPD*%
G01*
G04 APERTURE LIST*
%ADD10R,1.700000X1.700000*%
%ADD11O,1.700000X1.700000*%
%ADD12C,1.600000*%
%ADD13O,1.600000X1.600000*%
G04 APERTURE END LIST*
D10*
X129750000Y-65930000D03*
D11*
X127210000Y-65930000D03*
X129750000Y-68470000D03*
X127210000Y-68470000D03*
X129750000Y-71010000D03*
X127210000Y-71010000D03*
X129750000Y-73550000D03*
X127210000Y-73550000D03*
X129750000Y-76090000D03*
X127210000Y-76090000D03*
X129750000Y-78630000D03*
X127210000Y-78630000D03*
X129750000Y-81170000D03*
X127210000Y-81170000D03*
X129750000Y-83710000D03*
X127210000Y-83710000D03*
X129750000Y-86250000D03*
X127210000Y-86250000D03*
X129750000Y-88790000D03*
X127210000Y-88790000D03*
X129750000Y-91330000D03*
X127210000Y-91330000D03*
X129750000Y-93870000D03*
X127210000Y-93870000D03*
X129750000Y-96410000D03*
X127210000Y-96410000D03*
X129750000Y-98950000D03*
X127210000Y-98950000D03*
X129750000Y-101490000D03*
X127210000Y-101490000D03*
X129750000Y-104030000D03*
X127210000Y-104030000D03*
X129750000Y-106570000D03*
X127210000Y-106570000D03*
X129750000Y-109110000D03*
X127210000Y-109110000D03*
X129750000Y-111650000D03*
X127210000Y-111650000D03*
X129750000Y-114190000D03*
X127210000Y-114190000D03*
D12*
X159833300Y-92810000D03*
D13*
X159833300Y-85190000D03*
D12*
X142700000Y-92810000D03*
D13*
X142700000Y-85190000D03*
D10*
X137900000Y-75390000D03*
D11*
X137900000Y-72850000D03*
X140440000Y-75390000D03*
X140440000Y-72850000D03*
X142980000Y-75390000D03*
X142980000Y-72850000D03*
X145520000Y-75390000D03*
X145520000Y-72850000D03*
X148060000Y-75390000D03*
X148060000Y-72850000D03*
X150600000Y-75390000D03*
X150600000Y-72850000D03*
X153140000Y-75390000D03*
X153140000Y-72850000D03*
X155680000Y-75390000D03*
X155680000Y-72850000D03*
D12*
X168400000Y-92810000D03*
D13*
X168400000Y-85190000D03*
D10*
X160850000Y-72950000D03*
D11*
X163390000Y-72950000D03*
X165930000Y-72950000D03*
X168470000Y-72950000D03*
D12*
X151266700Y-92810000D03*
D13*
X151266700Y-85190000D03*
M02*
