M48
; DRILL file {KiCad 9.0.0} date 2025-05-05T16:58:21-0500
; FORMAT={-:-/ absolute / metric / decimal}
; #@! TF.CreationDate,2025-05-05T16:58:21-05:00
; #@! TF.GenerationSoftware,Kicad,Pcbnew,9.0.0
; #@! TF.FileFunction,Plated,1,2,PTH
FMAT,2
METRIC
; #@! TA.AperFunction,Plated,PTH,ViaDrill
T1C0.635
; #@! TA.AperFunction,Plated,PTH,ComponentDrill
T2C0.800
; #@! TA.AperFunction,Plated,PTH,ComponentDrill
T3C1.000
%
G90
G05
T1
X130.883Y-112.92
X134.0Y-66.6
X135.6Y-96.4
X135.8Y-100.8
X140.95Y-91.605
X141.985Y-77.494
X142.046Y-105.581
X142.374Y-104.333
X142.537Y-110.088
X142.6Y-99.8
X143.0Y-96.4
X143.272Y-103.626
X143.363Y-110.92
X143.6Y-107.2
X143.743Y-90.639
X144.082Y-112.12
X145.048Y-108.752
X145.697Y-106.36
X146.265Y-96.265
X146.492Y-68.844
X146.6Y-100.19
X146.647Y-112.191
X147.2Y-92.8
X147.596Y-101.016
X150.6Y-106.0
X150.812Y-112.71
X151.214Y-83.107
X151.283Y-104.262
X151.474Y-99.871
X152.2Y-113.8
X152.343Y-111.72
X152.6Y-116.2
X153.906Y-105.237
X154.029Y-113.317
X154.41Y-85.282
X154.68Y-108.672
X155.108Y-117.441
X155.135Y-104.034
X155.548Y-114.045
X156.533Y-78.034
X158.0Y-71.0
X158.036Y-74.829
X158.33Y-101.487
X159.982Y-99.421
X161.327Y-78.343
X161.375Y-82.032
X162.228Y-109.704
X162.6Y-106.4
X163.49Y-109.401
X169.6Y-94.8
X173.2Y-95.2
T2
X142.7Y-85.19
X142.7Y-92.81
X151.267Y-85.19
X151.267Y-92.81
X159.833Y-85.19
X159.833Y-92.81
X168.4Y-85.19
X168.4Y-92.81
T3
X127.21Y-65.93
X127.21Y-68.47
X127.21Y-71.01
X127.21Y-73.55
X127.21Y-76.09
X127.21Y-78.63
X127.21Y-81.17
X127.21Y-83.71
X127.21Y-86.25
X127.21Y-88.79
X127.21Y-91.33
X127.21Y-93.87
X127.21Y-96.41
X127.21Y-98.95
X127.21Y-101.49
X127.21Y-104.03
X127.21Y-106.57
X127.21Y-109.11
X127.21Y-111.65
X127.21Y-114.19
X129.75Y-65.93
X129.75Y-68.47
X129.75Y-71.01
X129.75Y-73.55
X129.75Y-76.09
X129.75Y-78.63
X129.75Y-81.17
X129.75Y-83.71
X129.75Y-86.25
X129.75Y-88.79
X129.75Y-91.33
X129.75Y-93.87
X129.75Y-96.41
X129.75Y-98.95
X129.75Y-101.49
X129.75Y-104.03
X129.75Y-106.57
X129.75Y-109.11
X129.75Y-111.65
X129.75Y-114.19
X137.9Y-72.85
X137.9Y-75.39
X140.44Y-72.85
X140.44Y-75.39
X142.98Y-72.85
X142.98Y-75.39
X145.52Y-72.85
X145.52Y-75.39
X148.06Y-72.85
X148.06Y-75.39
X150.6Y-72.85
X150.6Y-75.39
X153.14Y-72.85
X153.14Y-75.39
X155.68Y-72.85
X155.68Y-75.39
X160.85Y-72.95
X163.39Y-72.95
X165.93Y-72.95
X168.47Y-72.95
M30
